<svg width="229" height="133" viewBox="0 0 229 133" fill="none" xmlns="http://www.w3.org/2000/svg">
<path d="M1.76487 62L17.6369 18.6H26.5649L42.4369 62H34.0049L30.5329 51.956H13.6069L10.0729 62H1.76487ZM15.7769 45.756H28.3629L22.0389 27.714L15.7769 45.756ZM47.8415 62V31.248H54.8475L55.5295 35.402C56.5215 33.914 57.8235 32.736 59.4355 31.868C61.0889 30.9587 62.9902 30.504 65.1395 30.504C69.8929 30.504 73.2615 32.3433 75.2455 36.022C76.3615 34.3273 77.8495 32.984 79.7095 31.992C81.6109 31 83.6775 30.504 85.9095 30.504C89.9189 30.504 92.9982 31.7027 95.1475 34.1C97.2969 36.4973 98.3715 40.0107 98.3715 44.64V62H90.4355V45.384C90.4355 42.7387 89.9189 40.7133 88.8855 39.308C87.8935 37.9027 86.3435 37.2 84.2355 37.2C82.0862 37.2 80.3502 37.9853 79.0275 39.556C77.7462 41.1267 77.1055 43.3173 77.1055 46.128V62H69.1695V45.384C69.1695 42.7387 68.6529 40.7133 67.6195 39.308C66.5862 37.9027 64.9949 37.2 62.8455 37.2C60.7375 37.2 59.0222 37.9853 57.6995 39.556C56.4182 41.1267 55.7775 43.3173 55.7775 46.128V62H47.8415ZM105.906 75.64V31.248H112.974L113.842 35.65C114.834 34.286 116.136 33.0873 117.748 32.054C119.401 31.0207 121.53 30.504 124.134 30.504C127.027 30.504 129.611 31.2067 131.884 32.612C134.157 34.0173 135.955 35.9393 137.278 38.378C138.601 40.8167 139.262 43.586 139.262 46.686C139.262 49.786 138.601 52.5553 137.278 54.994C135.955 57.3913 134.157 59.2927 131.884 60.698C129.611 62.062 127.027 62.744 124.134 62.744C121.819 62.744 119.794 62.31 118.058 61.442C116.322 60.574 114.917 59.3547 113.842 57.784V75.64H105.906ZM122.46 55.8C124.981 55.8 127.069 54.9527 128.722 53.258C130.375 51.5633 131.202 49.3727 131.202 46.686C131.202 43.9993 130.375 41.788 128.722 40.052C127.069 38.316 124.981 37.448 122.46 37.448C119.897 37.448 117.789 38.316 116.136 40.052C114.524 41.7467 113.718 43.9373 113.718 46.624C113.718 49.3107 114.524 51.522 116.136 53.258C117.789 54.9527 119.897 55.8 122.46 55.8ZM146.351 62V17.36H154.287V62H146.351ZM173.928 62.744C170.084 62.744 167.108 61.5453 165 59.148C162.934 56.7507 161.9 53.2373 161.9 48.608V31.248H169.774V47.864C169.774 50.5093 170.312 52.5347 171.386 53.94C172.461 55.3453 174.156 56.048 176.47 56.048C178.661 56.048 180.459 55.2627 181.864 53.692C183.311 52.1213 184.034 49.9307 184.034 47.12V31.248H191.97V62H184.964L184.344 56.792C183.394 58.6107 182.009 60.0573 180.19 61.132C178.413 62.2067 176.326 62.744 173.928 62.744ZM212.827 62.744C210.099 62.744 207.702 62.31 205.635 61.442C203.568 60.5327 201.915 59.2927 200.675 57.722C199.435 56.1513 198.691 54.3327 198.443 52.266H206.441C206.689 53.4647 207.35 54.498 208.425 55.366C209.541 56.1927 210.967 56.606 212.703 56.606C214.439 56.606 215.7 56.2547 216.485 55.552C217.312 54.8493 217.725 54.0433 217.725 53.134C217.725 51.8113 217.146 50.9227 215.989 50.468C214.832 49.972 213.22 49.4967 211.153 49.042C209.83 48.7527 208.487 48.4013 207.123 47.988C205.759 47.5747 204.498 47.058 203.341 46.438C202.225 45.7767 201.316 44.95 200.613 43.958C199.91 42.9247 199.559 41.664 199.559 40.176C199.559 37.448 200.634 35.154 202.783 33.294C204.974 31.434 208.032 30.504 211.959 30.504C215.596 30.504 218.49 31.3513 220.639 33.046C222.83 34.7407 224.132 37.076 224.545 40.052H217.043C216.588 37.7787 214.873 36.642 211.897 36.642C210.409 36.642 209.252 36.9313 208.425 37.51C207.64 38.0887 207.247 38.812 207.247 39.68C207.247 40.5893 207.846 41.3127 209.045 41.85C210.244 42.3873 211.835 42.8833 213.819 43.338C215.968 43.834 217.932 44.392 219.709 45.012C221.528 45.5907 222.974 46.4793 224.049 47.678C225.124 48.8353 225.661 50.5093 225.661 52.7C225.702 54.6013 225.206 56.3167 224.173 57.846C223.14 59.3753 221.652 60.574 219.709 61.442C217.766 62.31 215.472 62.744 212.827 62.744Z" fill="white"/>
<path d="M86.5988 114V70.6H96.0228L109.849 98.128L123.489 70.6H132.913V114H124.977V84.054L112.887 107.8H106.625L94.5348 84.054V114H86.5988ZM156.089 114.744C152.989 114.744 150.241 114.083 147.843 112.76C145.446 111.437 143.565 109.577 142.201 107.18C140.837 104.783 140.155 102.013 140.155 98.872C140.155 95.6893 140.817 92.858 142.139 90.378C143.503 87.898 145.363 85.976 147.719 84.612C150.117 83.2067 152.927 82.504 156.151 82.504C159.169 82.504 161.835 83.1653 164.149 84.488C166.464 85.8107 168.262 87.6293 169.543 89.944C170.866 92.2173 171.527 94.7593 171.527 97.57C171.527 98.0247 171.507 98.5 171.465 98.996C171.465 99.492 171.445 100.009 171.403 100.546H148.029C148.195 102.943 149.021 104.824 150.509 106.188C152.039 107.552 153.878 108.234 156.027 108.234C157.639 108.234 158.983 107.883 160.057 107.18C161.173 106.436 162 105.485 162.537 104.328H170.597C170.019 106.271 169.047 108.048 167.683 109.66C166.361 111.231 164.707 112.471 162.723 113.38C160.781 114.289 158.569 114.744 156.089 114.744ZM156.151 88.952C154.209 88.952 152.493 89.51 151.005 90.626C149.517 91.7007 148.567 93.354 148.153 95.586H163.467C163.343 93.5607 162.599 91.9487 161.235 90.75C159.871 89.5513 158.177 88.952 156.151 88.952ZM192.338 114.744C189.445 114.744 186.861 114.041 184.588 112.636C182.315 111.231 180.517 109.309 179.194 106.87C177.871 104.431 177.21 101.662 177.21 98.562C177.21 95.462 177.871 92.7133 179.194 90.316C180.517 87.8773 182.315 85.976 184.588 84.612C186.861 83.2067 189.445 82.504 192.338 82.504C194.653 82.504 196.678 82.938 198.414 83.806C200.15 84.674 201.555 85.8933 202.63 87.464V69.36H210.566V114H203.498L202.63 109.598C201.638 110.962 200.315 112.161 198.662 113.194C197.05 114.227 194.942 114.744 192.338 114.744ZM194.012 107.8C196.575 107.8 198.662 106.953 200.274 105.258C201.927 103.522 202.754 101.311 202.754 98.624C202.754 95.9373 201.927 93.7467 200.274 92.052C198.662 90.316 196.575 89.448 194.012 89.448C191.491 89.448 189.403 90.2953 187.75 91.99C186.097 93.6847 185.27 95.8753 185.27 98.562C185.27 101.249 186.097 103.46 187.75 105.196C189.403 106.932 191.491 107.8 194.012 107.8Z" fill="white"/>
<path d="M31 125.529L26.9565 129.079C9.16522 112.966 0 104.5 0 94.1217C0 90.8444 1.07826 87.8402 2.69565 85.3822C2.69565 85.9285 2.69565 86.4747 2.69565 87.0209C2.69565 99.8569 13.2087 109.416 31 125.529ZM35.313 114.332C47.9826 102.588 56.6087 94.941 56.8783 87.0209C56.8783 81.5587 52.8348 77.4621 47.4435 77.4621C43.1304 77.4621 39.087 80.1932 37.7391 84.0167H32.6174C31 80.1932 26.9565 77.4621 22.913 77.4621C17.5217 77.4621 13.4783 81.5587 13.4783 87.0209C13.4783 94.941 21.8348 102.588 34.7739 114.332L35.0435 114.605M47.1739 72C55.5304 72 62 78.5546 62 87.0209C62 97.1258 52.8348 105.592 35.0435 121.979C17.2522 105.865 8.08696 97.399 8.08696 87.0209C8.08696 78.5546 14.5565 72 22.913 72C27.4957 72 32.0783 74.1849 35.0435 77.7352C38.0087 74.1849 42.5913 72 47.1739 72Z" fill="white"/>
<path d="M48.2222 81.8413L48.2222 91.6826" stroke="white" stroke-width="2.4" stroke-linecap="round"/>
<path d="M43.3016 86.7618L53.1428 86.7618" stroke="white" stroke-width="2.4" stroke-linecap="round"/>
</svg>
