<svg width="32" height="28" viewBox="0 0 32 28" fill="none" xmlns="http://www.w3.org/2000/svg">
<path d="M16 26.2606L13.913 27.9588C4.73043 20.2514 0 16.2017 0 11.2376C0 9.67002 0.556522 8.23304 1.3913 7.05733C1.3913 7.3186 1.3913 7.57987 1.3913 7.84114C1.3913 13.981 6.81739 18.5532 16 26.2606ZM18.2261 20.9046C24.7652 15.2873 29.2174 11.6295 29.3565 7.84114C29.3565 5.22845 27.2696 3.26894 24.487 3.26894C22.2609 3.26894 20.1739 4.57528 19.4783 6.40416H16.8348C16 4.57528 13.913 3.26894 11.8261 3.26894C9.04348 3.26894 6.95652 5.22845 6.95652 7.84114C6.95652 11.6295 11.2696 15.2873 17.9478 20.9046L18.087 21.0352M24.3478 0.65625C28.6609 0.65625 32 3.79148 32 7.84114C32 12.6746 27.2696 16.7243 18.087 24.5623C8.90435 16.8549 4.17391 12.8052 4.17391 7.84114C4.17391 3.79148 7.51304 0.65625 11.8261 0.65625C14.1913 0.65625 16.5565 1.70132 18.087 3.39957C19.6174 1.70132 21.9826 0.65625 24.3478 0.65625Z" fill="white"/>
<path d="M24.8889 5.36365L24.8889 10.071" stroke="white" stroke-width="2.4" stroke-linecap="round"/>
<path d="M22.3492 7.71729L27.4286 7.71729" stroke="white" stroke-width="2.4" stroke-linecap="round"/>
</svg>
